<?xml version="1.0" encoding="UTF-8" standalone="no"?>
<svg
   xmlns:dc="http://purl.org/dc/elements/1.1/"
   xmlns:cc="http://creativecommons.org/ns#"
   xmlns:rdf="http://www.w3.org/1999/02/22-rdf-syntax-ns#"
   xmlns:svg="http://www.w3.org/2000/svg"
   xmlns="http://www.w3.org/2000/svg"
   xmlns:sodipodi="http://sodipodi.sourceforge.net/DTD/sodipodi-0.dtd"
   xmlns:inkscape="http://www.inkscape.org/namespaces/inkscape"
   width="128"
   height="128"
   viewBox="0 0 33.866666 33.866668"
   version="1.1"
   id="svg8"
   sodipodi:docname="cost.svg"
   inkscape:version="1.0.2 (e86c870879, 2021-01-15)">
  <defs
     id="defs2">
    <filter
       inkscape:collect="always"
       style="color-interpolation-filters:sRGB"
       id="filter1518"
       x="-0.25327563"
       width="1.5670401"
       y="-0.31289279"
       height="1.5318241">
      <feGaussianBlur
         inkscape:collect="always"
         stdDeviation="9.1887676e-08"
         id="feGaussianBlur1520" />
    </filter>
  </defs>
  <sodipodi:namedview
     id="base"
     pagecolor="#ffffff"
     bordercolor="#666666"
     borderopacity="1.0"
     inkscape:pageopacity="0.0"
     inkscape:pageshadow="2"
     inkscape:zoom="3.959798"
     inkscape:cx="39.727489"
     inkscape:cy="67.061253"
     inkscape:document-units="mm"
     inkscape:current-layer="layer1"
     inkscape:document-rotation="0"
     showgrid="true"
     units="px"
     inkscape:window-width="1920"
     inkscape:window-height="1005"
     inkscape:window-x="0"
     inkscape:window-y="0"
     inkscape:window-maximized="1"
     inkscape:snap-intersection-paths="true"
     inkscape:snap-bbox="true"
     inkscape:bbox-nodes="true"
     inkscape:object-paths="true">
    <inkscape:grid
       type="xygrid"
       id="grid1404" />
  </sodipodi:namedview>
  <metadata
     id="metadata5">
    <rdf:RDF>
      <cc:Work
         rdf:about="">
        <dc:format>image/svg+xml</dc:format>
        <dc:type
           rdf:resource="http://purl.org/dc/dcmitype/StillImage" />
        <dc:title></dc:title>
      </cc:Work>
    </rdf:RDF>
  </metadata>
  <g
     inkscape:groupmode="layer"
     id="layer2"
     inkscape:label="Layer 2"
     sodipodi:insensitive="true"
     style="display:none">
    <g
       id="g1447"
       transform="translate(-1.672249,1.9332156)"
       style="opacity:0.415858">
      <path
         id="path1406"
         style="fill:#3a3a3a;fill-opacity:1;stroke-width:0.999999"
         d="M 45,0 V 10 H 57.5 V 21.066406 A 47.499999,47.499999 0 0 0 20,67.5 47.499999,47.499999 0 0 0 67.5,115 47.499999,47.499999 0 0 0 115,67.5 47.499999,47.499999 0 0 0 77.5,21.064453 V 10 H 90 V 0 Z"
         transform="scale(0.26458333)" />
      <circle
         style="fill:#bbebff;fill-opacity:1;stroke-width:0.264583"
         id="path1408"
         cx="17.859375"
         cy="17.859375"
         r="9.260417" />
      <path
         id="path1408-3"
         style="fill:#3a3a3a;fill-opacity:1;stroke-width:0.287049"
         d="M 91.216797,45.929688 72.873047,59.011719 A 10.04672,10.04672 0 0 0 67.5,57.453125 10.04672,10.04672 0 0 0 57.453125,67.5 10.04672,10.04672 0 0 0 67.5,77.546875 10.04672,10.04672 0 0 0 77.546875,67.5 10.04672,10.04672 0 0 0 76.320312,62.693359 L 94.119141,50 Z"
         transform="scale(0.26458333)" />
    </g>
  </g>
  <g
     inkscape:label="Layer 1"
     inkscape:groupmode="layer"
     id="layer1">
    <g
       id="g1550"
       transform="translate(0.87025245,-0.44152049)">
      <path
         style="opacity:0.993;fill:none;stroke:#00540d;stroke-width:5.29167;stroke-linecap:butt;stroke-linejoin:miter;stroke-miterlimit:4;stroke-dasharray:none;stroke-opacity:1;filter:url(#filter1518)"
         d="m 24.763346,8.0201823 c -7.9375,0 -18.5208336,-1.3229165 -18.5208336,6.6145827 0,7.9375 18.5208336,-1.322916 18.5208336,6.614584 0,7.9375 -9.260417,6.614583 -18.5208336,6.614583"
         id="path1507"
         sodipodi:nodetypes="czzc" />
      <rect
         style="opacity:0.993;fill:#00540d;fill-opacity:0.996078;stroke:none;stroke-width:7.03858;stroke-miterlimit:4;stroke-dasharray:none;stroke-opacity:1"
         id="rect1525"
         width="3.9687507"
         height="30.427082"
         x="10.583333"
         y="2.6458333" />
      <rect
         style="opacity:0.993;fill:#00540d;fill-opacity:0.996078;stroke:none;stroke-width:7.03858;stroke-miterlimit:4;stroke-dasharray:none;stroke-opacity:1"
         id="rect1525-6"
         width="3.9687507"
         height="30.427082"
         x="17.197916"
         y="2.6458333" />
    </g>
  </g>
</svg>
