<?xml version="1.0" encoding="UTF-8" standalone="no"?>
<svg
   xmlns:dc="http://purl.org/dc/elements/1.1/"
   xmlns:cc="http://creativecommons.org/ns#"
   xmlns:rdf="http://www.w3.org/1999/02/22-rdf-syntax-ns#"
   xmlns:svg="http://www.w3.org/2000/svg"
   xmlns="http://www.w3.org/2000/svg"
   xmlns:sodipodi="http://sodipodi.sourceforge.net/DTD/sodipodi-0.dtd"
   xmlns:inkscape="http://www.inkscape.org/namespaces/inkscape"
   width="128"
   height="128"
   viewBox="0 0 33.866666 33.866668"
   version="1.1"
   id="svg8"
   inkscape:version="1.0.2 (e86c870879, 2021-01-15)"
   sodipodi:docname="laser-marker.svg">
  <defs
     id="defs2" />
  <sodipodi:namedview
     id="base"
     pagecolor="#ffffff"
     bordercolor="#666666"
     borderopacity="1.0"
     inkscape:pageopacity="0.0"
     inkscape:pageshadow="2"
     inkscape:zoom="3.959798"
     inkscape:cx="39.727489"
     inkscape:cy="67.061253"
     inkscape:document-units="mm"
     inkscape:current-layer="layer1"
     inkscape:document-rotation="0"
     showgrid="true"
     units="px"
     inkscape:window-width="1920"
     inkscape:window-height="1005"
     inkscape:window-x="0"
     inkscape:window-y="0"
     inkscape:window-maximized="1">
    <inkscape:grid
       type="xygrid"
       id="grid1404" />
  </sodipodi:namedview>
  <metadata
     id="metadata5">
    <rdf:RDF>
      <cc:Work
         rdf:about="">
        <dc:format>image/svg+xml</dc:format>
        <dc:type
           rdf:resource="http://purl.org/dc/dcmitype/StillImage" />
        <dc:title />
      </cc:Work>
    </rdf:RDF>
  </metadata>
  <g
     inkscape:label="Layer 1"
     inkscape:groupmode="layer"
     id="layer1">
    <path
       id="path977"
       style="opacity:0.993;fill:#ffffff;fill-opacity:1;stroke:none;stroke-width:4.75699;stroke-linecap:round;stroke-linejoin:round;stroke-miterlimit:4;stroke-dasharray:none;stroke-dashoffset:3.5007;stroke-opacity:1;paint-order:stroke markers fill"
       d="M 56.5,4 V 9.5136719 C 32.078285,12.87618 12.877117,32.078145 9.515625,56.5 H 5 v 15 H 9.5136719 C 12.876177,95.921717 32.078144,115.12289 56.5,118.48438 V 124 h 15 v -5.51367 C 95.921717,115.12382 115.12289,95.921857 118.48438,71.5 H 125 v -15 h -6.51367 C 115.12382,32.078285 95.921855,12.877117 71.5,9.515625 V 4 Z m 0,15.628906 L 56.5,35 h 15 l 0,-15.369141 C 90.383745,22.822462 105.17849,37.616424 108.37109,56.5 l -13.371089,0 v 15 l 13.369139,0 C 105.17754,90.383744 90.383575,105.17849 71.5,108.37109 l 0,-13.371089 h -15 l 0,13.369139 C 37.616254,105.17754 22.821508,90.383577 19.628906,71.5 L 35,71.5 v -15 l -15.369141,0 C 22.82246,37.616254 37.616423,22.821508 56.5,19.628906 Z M 63.980469,54 C 58.46525,54.010772 53.999989,58.484771 54,64 c 0,5.522848 4.477152,10 10,10 5.522848,0 10,-4.477152 10,-10 0,-5.522848 -4.477152,-10 -10,-10 z"
       transform="scale(0.26458333)"
       sodipodi:nodetypes="cccccccccccccccccccccccccccccccccccssssc" />
  </g>
</svg>
