<?xml version="1.0" encoding="UTF-8" standalone="no"?>
<svg
   xmlns:dc="http://purl.org/dc/elements/1.1/"
   xmlns:cc="http://creativecommons.org/ns#"
   xmlns:rdf="http://www.w3.org/1999/02/22-rdf-syntax-ns#"
   xmlns:svg="http://www.w3.org/2000/svg"
   xmlns="http://www.w3.org/2000/svg"
   xmlns:sodipodi="http://sodipodi.sourceforge.net/DTD/sodipodi-0.dtd"
   xmlns:inkscape="http://www.inkscape.org/namespaces/inkscape"
   width="90"
   height="90"
   viewBox="0 0 23.812498 23.812498"
   version="1.1"
   id="svg8"
   inkscape:version="1.0.2 (e86c870879, 2021-01-15)"
   sodipodi:docname="ninepatch.svg">
  <defs
     id="defs2" />
  <sodipodi:namedview
     id="base"
     pagecolor="#ffffff"
     bordercolor="#666666"
     borderopacity="1.0"
     inkscape:pageopacity="0.0"
     inkscape:pageshadow="2"
     inkscape:zoom="5.6"
     inkscape:cx="66.64413"
     inkscape:cy="30.504447"
     inkscape:document-units="px"
     inkscape:current-layer="layer1"
     inkscape:document-rotation="0"
     showgrid="true"
     units="px"
     inkscape:window-width="1343"
     inkscape:window-height="908"
     inkscape:window-x="119"
     inkscape:window-y="52"
     inkscape:window-maximized="0">
    <inkscape:grid
       type="xygrid"
       id="grid1917"
       originx="0"
       originy="0" />
  </sodipodi:namedview>
  <metadata
     id="metadata5">
    <rdf:RDF>
      <cc:Work
         rdf:about="">
        <dc:format>image/svg+xml</dc:format>
        <dc:type
           rdf:resource="http://purl.org/dc/dcmitype/StillImage" />
        <dc:title></dc:title>
      </cc:Work>
    </rdf:RDF>
  </metadata>
  <g
     inkscape:label="Layer 1"
     inkscape:groupmode="layer"
     id="layer1">
    <path
       id="rect1919"
       style="fill:#006994;fill-opacity:1;fill-rule:evenodd;stroke-width:0.999999"
       d="M 20 0 C 8.9200003 -2.3684758e-15 0 8.9200003 0 20 L 0 70 C -2.3684758e-15 81.08 8.9200003 90 20 90 L 70 90 C 81.08 90 90 81.08 90 70 L 90 20 C 90 8.9200003 81.08 0 70 0 L 20 0 z M 20 10 L 70 10 C 75.540001 10 80 14.459999 80 20 L 80 70 C 80 75.540001 75.540001 80 70 80 L 20 80 C 14.459999 80 10 75.540001 10 70 L 10 20 C 10 14.459999 14.459999 10 20 10 z "
       transform="scale(0.26458331)" />
    <rect
       style="fill:#ffffff;fill-opacity:0.7340309;fill-rule:evenodd;stroke-width:0.264583"
       id="rect2026"
       width="18.520832"
       height="18.520832"
       x="2.6458333"
       y="2.645833"
       ry="2.6458335" />
  </g>
</svg>
