<?xml version="1.0" encoding="UTF-8" standalone="no"?>
<svg
   xmlns:dc="http://purl.org/dc/elements/1.1/"
   xmlns:cc="http://creativecommons.org/ns#"
   xmlns:rdf="http://www.w3.org/1999/02/22-rdf-syntax-ns#"
   xmlns:svg="http://www.w3.org/2000/svg"
   xmlns="http://www.w3.org/2000/svg"
   xmlns:sodipodi="http://sodipodi.sourceforge.net/DTD/sodipodi-0.dtd"
   xmlns:inkscape="http://www.inkscape.org/namespaces/inkscape"
   width="128"
   height="128"
   viewBox="0 0 33.866666 33.866668"
   version="1.1"
   id="svg8"
   inkscape:version="1.0.2 (e86c870879, 2021-01-15)"
   sodipodi:docname="time.svg">
  <defs
     id="defs2" />
  <sodipodi:namedview
     id="base"
     pagecolor="#ffffff"
     bordercolor="#666666"
     borderopacity="1.0"
     inkscape:pageopacity="0.0"
     inkscape:pageshadow="2"
     inkscape:zoom="3.959798"
     inkscape:cx="39.727489"
     inkscape:cy="67.061253"
     inkscape:document-units="mm"
     inkscape:current-layer="layer1"
     inkscape:document-rotation="0"
     showgrid="true"
     units="px"
     inkscape:window-width="1920"
     inkscape:window-height="1005"
     inkscape:window-x="0"
     inkscape:window-y="0"
     inkscape:window-maximized="1">
    <inkscape:grid
       type="xygrid"
       id="grid1404" />
  </sodipodi:namedview>
  <metadata
     id="metadata5">
    <rdf:RDF>
      <cc:Work
         rdf:about="">
        <dc:format>image/svg+xml</dc:format>
        <dc:type
           rdf:resource="http://purl.org/dc/dcmitype/StillImage" />
        <dc:title></dc:title>
      </cc:Work>
    </rdf:RDF>
  </metadata>
  <g
     inkscape:label="Layer 1"
     inkscape:groupmode="layer"
     id="layer1">
    <g
       id="g1447"
       transform="translate(-1.672249,1.9332156)">
      <path
         id="path1406"
         style="fill:#3a3a3a;fill-opacity:1;stroke-width:0.999999"
         d="M 45,0 V 10 H 57.5 V 21.066406 A 47.499999,47.499999 0 0 0 20,67.5 47.499999,47.499999 0 0 0 67.5,115 47.499999,47.499999 0 0 0 115,67.5 47.499999,47.499999 0 0 0 77.5,21.064453 V 10 H 90 V 0 Z"
         transform="scale(0.26458333)" />
      <circle
         style="fill:#bbebff;fill-opacity:1;stroke-width:0.264583"
         id="path1408"
         cx="17.859375"
         cy="17.859375"
         r="9.260417" />
      <path
         id="path1408-3"
         style="fill:#3a3a3a;fill-opacity:1;stroke-width:0.287049"
         d="M 91.216797,45.929688 72.873047,59.011719 A 10.04672,10.04672 0 0 0 67.5,57.453125 10.04672,10.04672 0 0 0 57.453125,67.5 10.04672,10.04672 0 0 0 67.5,77.546875 10.04672,10.04672 0 0 0 77.546875,67.5 10.04672,10.04672 0 0 0 76.320312,62.693359 L 94.119141,50 Z"
         transform="scale(0.26458333)" />
    </g>
  </g>
</svg>
